<svg width="128" height="128" viewBox="0 0 128 128" fill="none" xmlns="http://www.w3.org/2000/svg">
  <rect width="128" height="128" rx="26" fill="#050505"/>
  <g filter="url(#gold_glow)">
    <path d="M64 16L105 31V59C105 84 88.2 105.5 64 114C39.8 105.5 23 84 23 59V31L64 16Z" stroke="url(#gold)" stroke-width="6" stroke-linejoin="round"/>
    <path d="M26 35L64 22L102 35" stroke="#FFE787" stroke-width="2" stroke-opacity="0.45" stroke-linecap="round"/>
    <path d="M31 71C41 54 52.8 46 64 46C75.2 46 87 54 97 71C87 88 75.2 96 64 96C52.8 96 41 88 31 71Z" stroke="url(#gold)" stroke-width="7" stroke-linejoin="round"/>
    <path d="M40 71C47.5 61.5 55.5 57 64 57C72.5 57 80.5 61.5 88 71" stroke="#F4C430" stroke-width="4" stroke-opacity="0.6" stroke-linecap="round"/>
    <circle cx="64" cy="72" r="8" fill="url(#gold)"/>
    <path d="M64 80V92" stroke="url(#gold)" stroke-width="6" stroke-linecap="round"/>
    <path d="M64 37C77 39.5 88 45.5 97 54" stroke="url(#gold)" stroke-width="9" stroke-linecap="round"/>
    <path d="M88 88V103" stroke="url(#gold)" stroke-width="5" stroke-linecap="round"/>
    <path d="M88 88H101" stroke="url(#gold)" stroke-width="5" stroke-linecap="round"/>
    <circle cx="106" cy="88" r="5" fill="url(#gold)"/>
    <path d="M78 98V110" stroke="url(#gold)" stroke-width="5" stroke-linecap="round"/>
    <path d="M78 98H89" stroke="url(#gold)" stroke-width="5" stroke-linecap="round"/>
    <circle cx="94" cy="98" r="5" fill="url(#gold)"/>
  </g>
  <defs>
    <linearGradient id="gold" x1="22" y1="16" x2="110" y2="115" gradientUnits="userSpaceOnUse">
      <stop stop-color="#C99212"/>
      <stop offset="0.32" stop-color="#FFE787"/>
      <stop offset="0.62" stop-color="#F4C430"/>
      <stop offset="1" stop-color="#B97B0F"/>
    </linearGradient>
    <filter id="gold_glow" x="12" y="7" width="110" height="118" filterUnits="userSpaceOnUse" color-interpolation-filters="sRGB">
      <feFlood flood-opacity="0" result="BackgroundImageFix"/>
      <feColorMatrix in="SourceAlpha" type="matrix" values="0 0 0 0 0 0 0 0 0 0 0 0 0 0 0 0 0 0 127 0" result="hardAlpha"/>
      <feOffset dy="1"/>
      <feGaussianBlur stdDeviation="1.5"/>
      <feComposite in2="hardAlpha" operator="out"/>
      <feColorMatrix type="matrix" values="0 0 0 0 0.956 0 0 0 0 0.769 0 0 0 0 0.188 0 0 0 0.55 0"/>
      <feBlend mode="normal" in2="BackgroundImageFix" result="effect1_dropShadow"/>
      <feBlend mode="normal" in="SourceGraphic" in2="effect1_dropShadow" result="shape"/>
    </filter>
  </defs>
</svg>
